<svg xmlns="http://www.w3.org/2000/svg" viewBox="0 0 128 128"><defs><linearGradient id="body" x2=".2" y2="1"><stop stop-color="#85467b"/><stop offset="1" stop-color="#261f4b"/></linearGradient><linearGradient id="edge" x2=".5" y2="1"><stop stop-color="#e7effa" stop-opacity=".65"/><stop offset=".45" stop-color="#b9cadb" stop-opacity=".12"/><stop offset="1" stop-color="#c6d6e8" stop-opacity=".38"/></linearGradient><radialGradient id="lens"><stop stop-color="#79d5ff"/><stop offset=".45" stop-color="#2764a2"/><stop offset="1" stop-color="#061421"/></radialGradient><filter id="shadow" x="-30%" y="-30%" width="160%" height="170%"><feDropShadow dy="4" stdDeviation="3" flood-opacity=".38"/></filter></defs><rect x="7" y="9" width="114" height="114" rx="25" fill="#000" opacity=".25"/><rect x="6" y="5" width="116" height="116" rx="26" fill="url(#body)" stroke="url(#edge)" stroke-width="2"/><path d="M17 32q0-16 16-16h63q16 0 16 16v15Q64 24 17 47z" fill="#fff" opacity=".075"/><g filter="url(#shadow)"><rect x="30" y="30" width="68" height="72" rx="10" fill="#f2f5fa"/><path d="M30 49V40q0-10 10-10h48q10 0 10 10v9" fill="#e35c75"/><path d="M47 25v13M81 25v13" stroke="#dce5f1" stroke-width="6" stroke-linecap="round"/><g fill="#40536d"><rect x="43" y="60" width="10" height="10" rx="2"/><rect x="59" y="60" width="10" height="10" rx="2"/><rect x="75" y="60" width="10" height="10" rx="2"/><rect x="43" y="78" width="10" height="10" rx="2"/><rect x="59" y="78" width="10" height="10" rx="2"/></g><circle cx="80" cy="83" r="9" fill="#e35c75"/></g></svg>